<?xml version="1.0" encoding="utf-8"?>
<!-- Generator: Adobe Illustrator 27.6.1, SVG Export Plug-In . SVG Version: 6.00 Build 0)  -->
<svg version="1.1" id="Layer_2_00000128448521965877213340000010443591092917469097_"
	 xmlns="http://www.w3.org/2000/svg" xmlns:xlink="http://www.w3.org/1999/xlink" x="0px" y="0px" viewBox="0 0 1766.2 1800"
	 style="enable-background:new 0 0 1766.2 1800;" xml:space="preserve">
<style type="text/css">
	/* .st0{fill:#EE3124;} */
</style>
<g id="Layer_1-2" fill="none">
	<path class="st0" d="M619.8,873.9L552,864c-20.2-2.9-38.1-10.5-49.2-21.1c-9.5-9-14.6-21.9-14.6-36.5c0-41.1,31.2-66.5,81.4-66.5
		c36.3,0,78.1,4.5,112.7,38.2l5.1,5l81.4-82l-5.4-5.3c-49.3-48.7-108.1-70.4-190.6-70.4c-124.1,0-207.4,74.4-207.4,185
		c0,51.3,14.1,90.7,43.3,120.4c26.6,26.3,64.4,42.8,115.4,50.5l69.3,9.9c27.2,4.2,37.8,10,46.9,18.6c10.1,9.6,15.5,24.8,15.5,43.8
		c0,53.6-51.3,64.9-94.3,64.9c-58.8,0-102.4-15.4-133.6-47.2l-5.2-5.2l-82.9,84.5l5.1,5.3c54,55.7,118.2,79.5,215,79.5
		c131.7,0,220.2-74.4,220.2-185c0-56.1-15.6-99.7-46.7-129.6C706.9,895.7,671.9,881.2,619.8,873.9"/>
	<path class="st0" d="M883.1,1644.9c-403,0-730.9-334.2-730.9-744.9c0-410.7,327.9-744.9,730.9-744.9S1614,489.3,1614,900
		C1614,1310.8,1286.1,1644.9,883.1,1644.9 M883.1,0C396.2,0,0,403.8,0,900c0,496.3,396.2,900,883.1,900s883.1-403.7,883.1-900
		C1766.2,403.8,1370.1,0,883.1,0"/>
	<path class="st0" d="M989,828.6c-38.9,0-71.8,10.5-95.9,30.4v-161h237.9v-67.6h-305v322.3h65l1.7-5.1
		c10.8-32.8,43.8-52.4,88.3-52.4c62.7,0,89.4,40.3,89.4,134.7c0,44.3-2.2,86.3-29.3,113.9c-15.5,15.8-39.5,24.9-65.8,24.9
		c-54.4,0-83.1-26.9-90.2-84.7l-0.8-6.6h-72.5l0.6,8.1c3.6,45.4,17.4,80.2,42.5,106.6c28,28.4,70.7,44.1,120.5,44.1
		c49.7,0,89.9-15.4,119.7-45.8c44.4-45.2,48.1-104.2,48.1-160.6c0-57.9-6.1-117.7-49.7-162.2C1068.2,842.2,1032.1,828.6,989,828.6"
		/>
	<polygon class="st0" points="1164.7,729.1 1164.7,816.5 1271.9,720.3 1271.9,1230.7 1344.7,1230.7 1344.7,630.5 1276.5,630.5 	"/>
</g>
</svg>
